<svg t="1722331348995" class="icon" viewBox="0 0 1024 1024" version="1.1" xmlns="http://www.w3.org/2000/svg" p-id="7241" width="200" height="200"><path d="M995.9424 972.4928C972.3648 742.5792 778.1376 563.2 541.952 563.2l-59.8784 0C245.8624 563.2 51.6096 742.6048 28.032 972.5696 26.5472 976.64 25.6 980.992 25.6 985.6 25.6 1006.7968 42.7776 1024 64 1024S102.4 1006.7968 102.4 985.6c0-4.5056-0.9216-8.7808-2.3552-12.8l6.144 0C131.2768 784.9984 291.7376 640 486.4 640l51.2 0c194.6624 0 355.0976 144.9984 380.2112 332.8l6.144 0C922.5216 976.8192 921.6 981.0944 921.6 985.6c0 21.1968 17.2032 38.4 38.4 38.4s38.4-17.2032 38.4-38.4C998.4 980.9664 997.4528 976.5888 995.9424 972.4928zM512 537.6c141.3888 0 256-114.6368 256-256l0-25.6c0-141.3632-114.6112-256-256-256-141.3888 0-256 114.6368-256 256l0 25.6C256 422.9632 370.6112 537.6 512 537.6zM332.8 256c0-98.9696 80.2304-179.2 179.2-179.2 98.944 0 179.2 80.2304 179.2 179.2l0 25.6c0 98.9696-80.256 179.2-179.2 179.2-98.9696 0-179.2-80.2304-179.2-179.2L332.8 256z" p-id="7242"></path></svg>