<svg t="1722331305992" class="icon" viewBox="0 0 1024 1024" version="1.1" xmlns="http://www.w3.org/2000/svg" p-id="6217" width="200" height="200"><path d="M498.3 820.3c0 58.1-27.6 25.5-55.9-0.6-49.4-45.4-123.9-118.8-185.2-180H142.1c-41.6 0-54.8-13-54.8-51.1V435.2c0-37.3 14-51.1 54.8-51.1h116.5c61-61.5 134.8-134.8 184.1-179.8 28-25.6 55.7-58.9 55.7 1.6v614.4z m-70.9-714.8L216.1 307.3H87.3C32.2 307.3 5.1 335 5.1 384v255.7c0 48.3 27.9 76.7 82.2 76.7h128.8l211.3 201.8c60.7 53.3 153.1 29.8 153.1-58.6V164.1c0-89.3-93.5-110.8-153.1-58.6z m452.1 68.1c-7.4-13.8-22.3-22.5-38.6-22.4-11.3-0.1-22.1 4-30.2 11.5-8.1 7.5-12.7 17.8-12.8 28.5 0 14.5 8.2 27.2 20.7 34.3C894 298.4 936.3 396.6 936.4 499c0 118.8-56.4 225.2-145.2 297.7l0.1 0.2c-14.3 6.5-23.4 20.2-23.5 35.3 0 21.8 18.9 39.5 42.3 39.5 13.9 0.1 27-6.3 35-17.1l0.1 0.1c106.1-86.7 173.5-213.8 173.5-355.8 0-121.5-50-238.4-139.2-325.3zM732.3 316.9c-3.9-9.6-11.6-17.3-21.4-21.5-8.3-4.4-18-6-27.4-4.6-17.7 2.6-31.7 15.5-35.1 32.3-3.3 16.8 4.9 33.7 20.4 42.3 42.5 42.1 66.3 98.3 66.4 156.8-0.1 64.1-28.7 125.1-78.6 168-9.2 7.4-14.6 18.3-14.6 29.8 0 21.7 18.8 39.3 42.1 39.3 11.4 0 22.3-4.3 30.3-12 8.2-4.4 14.5-11.5 17.9-19.8 54.6-55.6 85-128.9 85.2-205.1-0.2-76.5-30.6-149.9-85.2-205.5z" fill="#2c2c2c" p-id="6218"></path></svg>